<svg width="20" height="20" viewBox="0 0 20 20" fill="none" xmlns="http://www.w3.org/2000/svg">
<path d="M9.99992 12.75C10.7424 12.75 11.3749 12.475 11.9341 11.9342C12.4749 11.375 12.7499 10.7425 12.7499 10C12.7499 9.25754 12.4749 8.62504 11.9341 8.06587C11.3749 7.52504 10.7424 7.25004 9.99992 7.25004C9.25742 7.25004 8.62492 7.52504 8.06575 8.06587C7.52492 8.62504 7.24992 9.25754 7.24992 10C7.24992 10.7425 7.52492 11.375 8.06575 11.9342C8.62492 12.475 9.25742 12.75 9.99992 12.75ZM9.99992 0.833374C12.5208 0.833374 14.6749 1.75004 16.4624 3.53754C18.2499 5.32504 19.1666 7.47921 19.1666 10V11.3292C19.1666 12.2459 18.8458 13.025 18.2499 13.6667C17.6083 14.2809 16.8749 14.5834 15.9583 14.5834C14.8583 14.5834 13.9508 14.125 13.2633 13.2084C12.3466 14.125 11.2649 14.5834 9.99992 14.5834C8.74409 14.5834 7.66242 14.125 6.75492 13.245C5.87492 12.3375 5.41659 11.265 5.41659 10C5.41659 8.74421 5.87492 7.66254 6.75492 6.75504C7.66242 5.87504 8.74409 5.41671 9.99992 5.41671C11.2649 5.41671 12.3374 5.87504 13.2449 6.75504C14.1249 7.66254 14.5833 8.74421 14.5833 10V11.3292C14.5833 11.705 14.7299 12.035 15.0049 12.3192C15.2799 12.6034 15.6008 12.75 15.9583 12.75C16.3433 12.75 16.6641 12.6034 16.9391 12.3192C17.2141 12.035 17.3333 11.705 17.3333 11.3292V10C17.3333 7.99254 16.6274 6.26921 15.1791 4.82087C13.7308 3.37254 12.0074 2.66671 9.99992 2.66671C7.99242 2.66671 6.26909 3.37254 4.82075 4.82087C3.37242 6.26921 2.66659 7.99254 2.66659 10C2.66659 12.0075 3.37242 13.7309 4.82075 15.1792C6.26909 16.6275 7.99242 17.3334 9.99992 17.3334H14.5833V19.1667H9.99992C7.47909 19.1667 5.32492 18.25 3.53742 16.4625C1.74992 14.675 0.833252 12.5209 0.833252 10C0.833252 7.47921 1.74992 5.32504 3.53742 3.53754C5.32492 1.75004 7.47909 0.833374 9.99992 0.833374Z" fill="white"/>
</svg>
