<svg width="18" height="18" viewBox="0 0 18 18" fill="none" xmlns="http://www.w3.org/2000/svg">
<path d="M4.06833 7.89083C5.38833 10.485 7.515 12.6117 10.1092 13.9317L12.1258 11.915C12.3825 11.6583 12.74 11.585 13.0608 11.6858C14.0875 12.025 15.1875 12.2083 16.3333 12.2083C16.5764 12.2083 16.8096 12.3049 16.9815 12.4768C17.1534 12.6487 17.25 12.8819 17.25 13.125V16.3333C17.25 16.5764 17.1534 16.8096 16.9815 16.9815C16.8096 17.1534 16.5764 17.25 16.3333 17.25C12.2004 17.25 8.23669 15.6082 5.31425 12.6857C2.39181 9.76331 0.75 5.79962 0.75 1.66667C0.75 1.42355 0.846577 1.19039 1.01849 1.01849C1.19039 0.846577 1.42355 0.75 1.66667 0.75H4.875C5.11812 0.75 5.35127 0.846577 5.52318 1.01849C5.69509 1.19039 5.79167 1.42355 5.79167 1.66667C5.79167 2.8125 5.975 3.9125 6.31417 4.93917C6.415 5.26 6.34167 5.6175 6.085 5.87417L4.06833 7.89083Z" fill="#ff6338"/>
</svg>
